<?xml version="1.0" standalone="no"?>
<!DOCTYPE svg PUBLIC "-//W3C//DTD SVG 20010904//EN"
 "http://www.w3.org/TR/2001/REC-SVG-20010904/DTD/svg10.dtd">
<svg version="1.0" xmlns="http://www.w3.org/2000/svg"
 width="1080.000000pt" height="1920.000000pt" viewBox="0 0 1080.000000 1920.000000"
 preserveAspectRatio="xMidYMid meet">
<metadata>
Created by potrace 1.16, written by Peter Selinger 2001-2019
</metadata>
<g transform="translate(0.000000,1920.000000) scale(0.100000,-0.100000)"
fill="#000000" stroke="none">
<path d="M0 9600 l0 -9600 5400 0 5400 0 0 9600 0 9600 -5400 0 -5400 0 0
-9600z m4985 6349 c212 -54 365 -193 432 -393 l27 -81 4 -408 c4 -468 0 -506
-70 -647 -74 -153 -222 -269 -403 -316 -96 -25 -304 -26 -395 -1 -275 75 -440
268 -470 551 -12 117 -13 634 0 752 5 49 19 120 30 157 25 82 105 202 168 255
173 144 428 193 677 131z m2719 21 c291 -34 490 -197 556 -456 18 -71 20 -111
20 -478 0 -451 -5 -490 -66 -616 -51 -104 -161 -212 -264 -262 -99 -47 -183
-68 -305 -75 -318 -17 -577 145 -675 421 -24 71 -24 74 -28 491 -4 475 0 514
64 645 52 105 161 214 264 262 87 40 139 56 230 67 93 12 105 12 204 1z
m-4467 -33 c16 -16 18 -46 21 -342 l3 -325 114 0 115 0 0 323 c0 177 4 327 8
334 17 26 69 33 258 33 225 0 257 -7 268 -60 11 -58 7 -1716 -5 -1747 -5 -15
-16 -31 -22 -35 -7 -4 -115 -8 -241 -8 -200 0 -232 2 -248 17 -17 15 -18 39
-18 345 l0 328 -115 0 -115 0 0 -315 c0 -264 -3 -321 -15 -345 l-16 -30 -239
0 c-236 0 -239 0 -254 22 -14 20 -16 122 -16 898 0 949 -2 912 53 923 12 3
117 4 234 3 189 -1 214 -3 230 -19z m3208 -1 c208 -58 345 -197 401 -407 25
-96 23 -264 -6 -354 -36 -115 -102 -209 -191 -274 l-36 -27 98 -259 c184 -484
174 -452 155 -480 l-16 -25 -241 0 c-137 0 -248 4 -259 10 -19 10 -28 32 -156
413 -57 168 -91 257 -100 257 -12 0 -14 -56 -14 -318 0 -271 -2 -321 -16 -340
-15 -22 -18 -22 -254 -22 -236 0 -239 0 -254 22 -14 20 -16 122 -16 896 0 599
3 880 11 893 6 11 20 24 32 29 13 6 187 8 412 6 328 -2 399 -5 450 -20z
m-1132 -2278 c13 -18 41 -61 62 -95 21 -35 41 -63 45 -63 5 0 29 35 56 78 26
42 54 85 62 95 14 16 62 24 62 10 0 -3 -31 -55 -70 -114 -38 -59 -70 -112 -70
-118 0 -6 34 -65 75 -130 41 -65 75 -121 75 -124 0 -4 -13 -7 -29 -7 -27 0
-36 10 -93 105 -35 57 -65 105 -68 105 -3 0 -35 -47 -70 -105 -57 -92 -68
-105 -92 -105 -16 0 -28 3 -28 7 0 3 34 59 75 123 41 64 75 122 75 128 0 6
-29 57 -65 112 -83 127 -84 130 -52 130 18 0 34 -11 50 -32z m435 -220 l2
-248 -30 0 -30 0 0 251 0 250 28 -3 27 -3 3 -247z m192 2 l0 -250 -30 0 -30 0
0 243 c0 134 3 247 7 250 3 4 17 7 30 7 l23 0 0 -250z m-1395 -48 c67 -41 121
-215 111 -356 -3 -44 -10 -84 -14 -88 -14 -14 -98 86 -132 156 -67 136 -78
263 -26 298 17 12 28 10 61 -10z m1815 -57 c11 -13 11 -29 1 -82 -16 -86 -44
-142 -73 -143 -14 0 -20 94 -9 144 19 85 51 117 81 81z m855 -340 c-26 -43
-108 -125 -126 -125 -16 0 -9 44 15 95 23 49 55 84 106 119 25 16 25 16 28
-13 2 -19 -7 -47 -23 -76z m-3542 -96 c51 -57 114 -188 132 -274 16 -77 20
-175 6 -175 -16 0 -91 66 -132 115 -56 68 -87 123 -115 206 -27 79 -30 116
-12 155 18 40 71 28 121 -27z m4414 -351 c41 -39 32 -78 -37 -151 -81 -87
-175 -131 -338 -161 -31 -5 -33 -4 -27 17 34 110 179 269 280 305 50 18 96 14
122 -10z m-5092 -239 c47 -44 75 -82 100 -133 35 -71 75 -220 62 -232 -4 -4
-37 8 -74 27 -84 42 -199 153 -232 224 -36 77 -38 115 -7 148 41 45 74 37 151
-34z m2486 -424 c48 -63 48 -89 1 -93 l-32 -3 0 -1080 0 -1079 208 -1 c114 -1
389 -4 612 -8 223 -3 415 -5 428 -2 15 2 22 10 22 26 0 12 7 28 15 35 13 10
22 8 53 -14 102 -72 103 -79 20 -138 -64 -45 -88 -45 -88 1 l0 29 -92 6 c-51
3 -337 8 -635 12 l-542 6 -3 -83 c-3 -76 -5 -84 -23 -84 -18 0 -20 8 -23 81
l-3 82 -84 7 c-88 7 -105 15 -84 41 10 12 27 14 91 8 l78 -7 0 1082 0 1081
-29 0 c-54 0 -56 21 -6 89 25 33 52 61 60 61 8 0 33 -25 56 -55z m3193 -47
c14 -8 17 -17 13 -45 -3 -19 -12 -42 -19 -51 -29 -35 -160 -110 -235 -135 -86
-28 -243 -47 -243 -30 0 24 96 125 160 168 85 59 233 117 275 109 17 -4 38
-11 49 -16z m-6278 -368 c28 -16 70 -50 94 -77 l42 -48 -27 -3 c-42 -5 -134
46 -172 96 -18 24 -33 48 -33 53 0 18 46 8 96 -21z m6732 -546 c67 -43 -18
-132 -163 -170 -81 -22 -285 -17 -285 7 0 15 122 100 189 132 114 54 205 65
259 31z m-6938 -315 c41 -10 100 -45 100 -58 0 -11 -36 -21 -81 -21 -55 0
-136 28 -154 53 -14 20 -14 23 2 35 18 13 60 10 133 -9z m6528 -731 l2 -248
-30 0 -30 0 0 251 0 250 28 -3 27 -3 3 -247z m192 2 l0 -250 -30 0 -30 0 0
243 c0 134 3 247 7 250 3 4 17 7 30 7 l23 0 0 -250z m198 -2 l2 -248 -30 0
-30 0 0 251 0 250 28 -3 27 -3 3 -247z m-7288 -58 l0 -250 -30 0 -30 0 0 243
c0 134 3 247 7 250 3 4 17 7 30 7 l23 0 0 -250z m163 218 c13 -18 41 -61 62
-95 21 -35 41 -63 45 -63 5 0 29 35 56 78 26 42 54 85 62 95 14 16 62 24 62
10 0 -3 -31 -55 -70 -114 -38 -59 -70 -112 -70 -118 0 -6 34 -65 75 -130 41
-65 75 -121 75 -124 0 -4 -13 -7 -29 -7 -27 0 -36 10 -93 105 -35 57 -65 105
-68 105 -3 0 -35 -47 -70 -105 -57 -92 -68 -105 -92 -105 -16 0 -28 3 -28 7 0
3 34 59 75 123 41 64 75 122 75 128 0 6 -29 57 -65 112 -83 127 -84 130 -52
130 18 0 34 -11 50 -32z m7062 -943 c27 -14 40 -27 40 -40 0 -18 -6 -20 -66
-19 -93 1 -211 61 -152 78 38 10 139 0 178 -19z m-6605 -193 c21 -8 20 -11
-26 -51 -96 -84 -228 -141 -329 -141 -63 0 -95 20 -95 61 0 63 93 113 270 143
34 6 153 -2 180 -12z m6285 -621 c32 -18 62 -46 83 -77 32 -46 33 -49 14 -52
-45 -7 -148 66 -213 152 -13 18 -12 19 26 12 22 -4 63 -20 90 -35z m-5785
-216 c0 -27 -141 -158 -207 -193 -130 -69 -230 -89 -272 -54 -57 47 52 161
209 217 117 43 270 59 270 30z m5139 -398 c171 -100 285 -303 205 -366 -36
-28 -52 -27 -109 11 -91 61 -161 183 -190 331 l-13 69 27 -7 c14 -3 51 -21 80
-38z m-4629 -258 c0 -6 -17 -43 -37 -81 -65 -123 -194 -230 -295 -244 -41 -6
-46 -4 -71 26 -36 42 -34 59 11 117 67 84 159 140 286 173 83 22 106 24 106 9z
m3964 -281 c82 -82 134 -169 166 -275 18 -61 20 -78 10 -108 -15 -45 -21 -48
-69 -35 -34 9 -47 21 -90 85 -58 87 -88 161 -107 265 -18 104 -18 140 2 140 9
0 49 -33 88 -72z m-3359 -375 c-10 -57 -39 -105 -89 -151 -83 -77 -105 -37
-36 66 33 50 109 122 128 122 2 0 1 -17 -3 -37z m2575 -218 c50 -103 66 -185
48 -240 -11 -35 -17 -40 -46 -43 -22 -2 -41 3 -54 15 -26 23 -62 94 -82 162
-16 56 -22 200 -9 262 l6 33 49 -54 c27 -30 67 -91 88 -135z m-1770 -75 c0
-64 -24 -139 -49 -155 -20 -12 -41 16 -41 54 0 81 60 213 81 179 5 -7 9 -42 9
-78z m453 48 c13 -18 41 -61 62 -95 21 -35 41 -63 45 -63 5 0 29 35 56 78 26
42 54 85 62 95 14 16 62 24 62 10 0 -3 -31 -55 -70 -114 -38 -59 -70 -112 -70
-118 0 -6 34 -65 75 -130 41 -65 75 -121 75 -124 0 -4 -13 -7 -29 -7 -27 0
-36 10 -93 105 -35 57 -65 105 -68 105 -3 0 -35 -47 -70 -105 -57 -92 -68
-105 -92 -105 -16 0 -28 3 -28 7 0 3 34 59 75 123 41 64 75 122 75 128 0 6
-29 57 -65 112 -83 127 -84 130 -52 130 18 0 34 -11 50 -32z m435 -220 l2
-248 -30 0 -30 0 0 251 0 250 28 -3 27 -3 3 -247z m192 2 l0 -250 -30 0 -30 0
0 243 c0 134 3 247 7 250 3 4 17 7 30 7 l23 0 0 -250z m-2120 -590 c229 -66
388 -232 435 -455 21 -101 21 -819 0 -920 -45 -215 -199 -384 -415 -454 -126
-40 -323 -45 -455 -10 -222 59 -391 233 -440 452 -14 63 -16 133 -12 503 3
399 5 433 24 489 71 210 225 350 440 399 37 9 77 18 88 20 51 12 262 -3 335
-24z m1395 5 c212 -59 370 -207 428 -402 19 -64 32 -183 23 -217 -14 -55 -18
-56 -267 -56 -216 0 -230 1 -249 20 -14 14 -20 33 -20 66 0 87 -49 144 -123
144 -46 0 -99 -37 -114 -80 -18 -54 -18 -740 1 -783 22 -52 59 -79 115 -85 47
-4 53 -2 86 31 32 32 35 40 35 96 l0 61 -69 0 c-100 0 -101 2 -101 215 0 138
3 175 16 193 15 22 16 22 333 22 258 0 321 -3 337 -14 18 -14 19 -29 18 -298
0 -280 0 -284 -27 -365 -65 -194 -214 -331 -427 -390 -93 -25 -319 -25 -410 1
-231 67 -375 210 -437 436 -16 58 -18 112 -18 485 0 468 1 481 71 622 79 164
250 278 474 317 54 10 267 -3 325 -19z m-3056 -21 c21 -26 21 -34 21 -690 l0
-664 324 0 c304 0 325 -1 347 -19 24 -19 24 -21 24 -216 0 -195 0 -197 -24
-216 -22 -18 -47 -19 -597 -19 -561 0 -574 0 -594 20 -20 20 -20 33 -20 905 0
872 0 885 20 905 19 19 33 20 249 20 l230 0 20 -26z m4120 0 c21 -27 21 -32
21 -899 0 -867 0 -872 -21 -899 l-20 -26 -220 0 c-216 0 -252 5 -271 34 -4 6
-8 408 -8 894 0 869 0 882 20 902 19 19 33 20 249 20 l230 0 20 -26z m640 0
c21 -26 21 -35 21 -658 0 -613 1 -632 20 -664 31 -51 93 -66 150 -37 56 29 55
9 60 703 l5 644 24 19 c21 17 42 19 247 19 211 0 225 -1 244 -20 20 -20 20
-33 20 -662 0 -527 -3 -656 -15 -713 -45 -215 -209 -385 -435 -451 -51 -15
-96 -19 -210 -18 -129 0 -154 3 -225 27 -199 66 -328 192 -393 381 l-27 81 -3
667 c-3 660 -3 667 18 688 19 19 32 20 249 20 l230 0 20 -26z m1398 11 c12 -8
74 -105 139 -215 64 -110 120 -200 124 -200 4 0 60 92 125 205 65 113 126 210
136 215 21 12 459 13 475 2 33 -22 34 -46 34 -920 0 -864 0 -869 -21 -896
l-20 -26 -228 0 c-180 0 -231 3 -247 14 -18 14 -19 34 -24 488 l-5 473 -64
-108 c-35 -59 -73 -114 -84 -122 -31 -22 -142 -20 -164 3 -10 9 -45 63 -78
119 -33 57 -63 103 -67 103 -5 0 -8 -211 -8 -469 l0 -470 -22 -15 c-33 -24
-453 -24 -486 0 l-22 15 0 894 0 894 22 15 c32 23 453 24 485 1z"/>
<path d="M4665 15914 c-246 -40 -419 -184 -481 -400 -15 -49 -18 -120 -22
-427 -5 -484 6 -562 93 -694 54 -82 121 -140 210 -184 97 -48 191 -69 308 -69
320 0 552 173 607 455 8 42 10 187 8 475 l-3 415 -26 67 c-69 177 -197 292
-385 343 -59 16 -253 28 -309 19z m212 -381 c23 -14 52 -45 65 -67 l23 -41 0
-395 0 -395 -27 -46 c-32 -54 -59 -74 -121 -89 -83 -22 -171 22 -208 105 -17
37 -19 73 -19 423 0 323 2 388 15 420 33 77 86 111 175 112 44 0 65 -6 97 -27z"/>
<path d="M4720 15493 c-19 -10 -43 -34 -55 -53 -19 -34 -20 -51 -20 -410 0
-415 0 -414 64 -457 65 -44 146 -23 181 47 19 37 20 58 20 407 0 331 -2 371
-18 402 -35 69 -109 97 -172 64z"/>
<path d="M7460 15906 c-138 -29 -233 -80 -319 -171 -59 -62 -115 -172 -131
-254 -6 -31 -10 -225 -10 -455 0 -318 3 -414 15 -464 48 -204 217 -363 435
-408 111 -23 291 -14 388 19 189 66 317 200 369 388 16 56 18 113 18 469 0
349 -2 413 -17 466 -57 205 -197 343 -404 399 -81 23 -262 28 -344 11z m262
-378 c72 -55 73 -58 76 -481 2 -258 -1 -391 -9 -419 -15 -56 -72 -113 -128
-128 -101 -27 -195 26 -230 129 -14 44 -15 740 -1 792 15 52 50 99 90 121 53
29 155 22 202 -14z"/>
<path d="M7551 15492 c-70 -38 -71 -42 -71 -467 0 -359 1 -382 20 -412 10 -18
33 -39 49 -48 61 -31 136 -11 171 48 19 30 20 53 20 416 0 375 0 384 -22 418
-36 59 -106 78 -167 45z"/>
<path d="M2780 15030 l0 -870 210 0 210 0 0 338 c0 250 3 341 12 350 14 14
294 17 315 4 10 -6 13 -91 15 -348 l3 -339 213 -3 212 -2 0 870 0 870 -212 -2
-213 -3 -3 -333 -2 -333 -26 -9 c-14 -6 -80 -10 -147 -10 -184 0 -167 -36
-167 361 l0 329 -210 0 -210 0 0 -870z"/>
<path d="M5600 15030 l0 -870 210 0 210 0 0 326 c0 205 4 332 10 345 8 15 21
19 59 19 27 0 53 -6 58 -12 5 -7 58 -157 117 -333 60 -176 113 -326 118 -332
8 -10 66 -13 225 -13 168 0 214 3 210 13 -293 770 -280 725 -214 766 90 56
168 172 193 290 67 318 -115 615 -406 661 -36 5 -228 10 -427 10 l-363 0 0
-870z m707 484 c125 -93 99 -299 -44 -342 -61 -18 -208 -16 -227 4 -13 13 -16
43 -16 170 0 92 4 164 11 175 10 19 19 20 129 17 102 -3 123 -6 147 -24z"/>
<path d="M6080 15355 l0 -135 81 0 c93 0 130 16 154 66 34 72 6 162 -60 190
-19 8 -66 14 -105 14 l-70 0 0 -135z"/>
<path d="M3460 5664 c-230 -44 -399 -193 -457 -405 -16 -56 -18 -113 -18 -469
0 -449 4 -484 67 -602 112 -211 358 -323 632 -290 246 31 404 145 492 357 l29
70 0 460 0 460 -27 68 c-65 162 -175 266 -345 323 -67 23 -97 27 -213 30 -74
1 -146 0 -160 -2z m220 -366 c26 -14 57 -41 75 -66 l30 -44 0 -401 0 -402 -25
-43 c-15 -27 -42 -54 -68 -69 -59 -35 -152 -30 -204 9 -72 55 -73 58 -76 481
-2 243 1 391 8 417 21 77 101 139 180 140 20 0 56 -10 80 -22z"/>
<path d="M3540 5247 c-13 -7 -35 -28 -47 -46 -23 -34 -23 -35 -23 -420 0 -359
1 -388 19 -414 27 -42 60 -60 107 -60 50 0 87 21 114 66 19 30 20 53 20 412 0
359 -1 382 -20 412 -34 57 -112 79 -170 50z"/>
<path d="M4875 5664 c-203 -43 -336 -137 -417 -297 -53 -106 -58 -153 -58
-580 0 -323 3 -400 16 -460 45 -200 173 -334 384 -404 25 -8 101 -17 170 -20
151 -6 239 10 344 62 130 64 211 154 265 293 24 65 25 76 29 345 l4 277 -296
0 -296 0 0 -159 0 -159 76 -4 c52 -2 78 -8 84 -18 5 -8 10 -46 10 -84 0 -117
-51 -186 -148 -202 -86 -13 -191 58 -209 143 -4 21 -8 205 -8 408 0 363 0 371
22 412 39 73 110 111 186 99 86 -14 142 -78 154 -176 l6 -50 208 0 209 0 0 55
c0 243 -182 456 -436 510 -63 13 -250 19 -299 9z"/>
<path d="M1700 4785 l0 -865 560 0 560 0 0 175 0 175 -334 0 c-291 0 -337 2
-350 16 -14 14 -16 90 -16 690 l0 674 -210 0 -210 0 0 -865z"/>
<path d="M5820 4785 l0 -865 210 0 210 0 0 865 0 865 -210 0 -210 0 0 -865z"/>
<path d="M6462 4988 c3 -643 4 -665 24 -720 68 -185 212 -309 410 -354 91 -20
290 -15 366 10 144 46 260 138 321 254 68 129 67 116 67 829 l0 643 -210 0
-210 0 0 -627 c0 -592 -2 -630 -19 -669 -66 -145 -278 -129 -321 24 -6 24 -10
261 -10 655 l0 617 -210 0 -211 0 3 -662z"/>
<path d="M7860 4785 l0 -865 215 0 215 0 2 513 3 512 28 0 c26 0 36 -13 116
-145 l87 -145 52 0 51 0 89 145 c50 82 96 146 106 148 46 9 46 11 46 -524 l0
-504 210 0 210 0 0 865 0 865 -212 0 -213 0 -125 -217 c-68 -118 -130 -222
-137 -229 -29 -28 -57 7 -185 224 l-126 217 -216 3 -216 2 0 -865z"/>
</g>
</svg>
